<svg width="124" height="114" viewBox="0 0 124 114" fill="none" xmlns="http://www.w3.org/2000/svg">
<path d="M63.5116 0.240814L59.476 1.27684L9.76112 14.0401L5.72585 15.0761C3.76719 15.5813 2.08979 16.8393 1.06166 18.5742C0.0335245 20.309 -0.261382 22.3791 0.241635 24.3301L17.7394 91.8804C18.2471 93.83 19.5107 95.4997 21.2532 96.5231C22.9957 97.5464 25.0748 97.84 27.0345 97.3393L27.0449 97.3367L84.8098 82.5068L84.8202 82.5042C86.7791 81.9992 88.4568 80.7413 89.4851 79.0064C90.5135 77.2714 90.8085 75.2012 90.3055 73.25L72.8072 5.70053C72.2998 3.75059 71.0361 2.08065 69.2934 1.05711C67.5507 0.0335645 65.4714 -0.260003 63.5116 0.240814Z" fill="#1A1A1A"/>
<path d="M64.0603 2.35808L59.2808 3.58513L11.0538 15.9663L6.27442 17.1934C4.87945 17.5529 3.68474 18.4487 2.95246 19.6842C2.22017 20.9197 2.01013 22.3939 2.36842 23.7834L19.8668 91.3329C20.228 92.7216 21.1278 93.911 22.3688 94.64C23.6099 95.369 25.0907 95.5781 26.4864 95.2215L26.4968 95.2188L84.2617 80.3889L84.2723 80.3861C85.6672 80.0266 86.8619 79.1308 87.5942 77.8953C88.3265 76.6598 88.5366 75.1856 88.1783 73.7961L70.6799 6.24617C70.3187 4.85743 69.4189 3.66806 68.1778 2.93905C66.9368 2.21003 65.456 2.00092 64.0603 2.35761V2.35808Z" fill="#0D0D0D"/>
<path d="M63.6014 4.16471L58.9968 5.34959L12.5341 17.3052L7.92947 18.49C6.58554 18.8372 5.43454 19.7022 4.72904 20.8952C4.02354 22.0883 3.82118 23.5118 4.16636 24.8535L21.0246 90.0809C21.3726 91.4219 22.2395 92.5703 23.4351 93.2743C24.6308 93.9782 26.0574 94.1802 27.4021 93.8357L27.4121 93.8332L83.0638 79.5131L83.074 79.5104C84.4179 79.1632 85.5689 78.2982 86.2744 77.1052C86.9799 75.9122 87.1823 74.4886 86.8371 73.1469L69.9788 7.91915C69.6309 6.57815 68.764 5.42966 67.5683 4.72571C66.3727 4.02176 64.946 3.81984 63.6014 4.16426V4.16471Z" fill="#1A1A1A"/>
<path d="M60.4512 24.2331L31.2294 31.7351C31.067 31.7791 30.8974 31.7906 30.7305 31.7688C30.5635 31.7471 30.4026 31.6925 30.2571 31.6083C30.1115 31.5241 29.9842 31.412 29.8825 31.2784C29.7809 31.1448 29.7068 30.9925 29.6648 30.8302C29.6228 30.6679 29.6135 30.4989 29.6376 30.3331C29.6617 30.1672 29.7187 30.0078 29.8052 29.864C29.8917 29.7202 30.0061 29.595 30.1416 29.4956C30.2771 29.3961 30.4311 29.3245 30.5947 29.2849L59.8165 21.7827C59.9789 21.7387 60.1486 21.7272 60.3155 21.749C60.4824 21.7708 60.6433 21.8253 60.7889 21.9095C60.9344 21.9937 61.0617 22.1058 61.1634 22.2394C61.2651 22.373 61.3391 22.5253 61.3811 22.6876C61.4232 22.8499 61.4324 23.0189 61.4083 23.1848C61.3842 23.3506 61.3272 23.5101 61.2407 23.6538C61.1542 23.7976 61.0399 23.9228 60.9043 24.0223C60.7688 24.1217 60.6148 24.1935 60.4512 24.2331Z" fill="#BDBDBD"/>
<path d="M66.5987 27.0648L32.3001 35.8703C31.9755 35.949 31.6328 35.8973 31.3461 35.7264C31.0595 35.5554 30.852 35.279 30.7685 34.9569C30.6851 34.6348 30.7324 34.2929 30.9003 34.0053C31.0681 33.7176 31.343 33.5074 31.6654 33.42L65.9635 24.6147C66.1259 24.5707 66.2955 24.5593 66.4625 24.581C66.6294 24.6028 66.7903 24.6574 66.9358 24.7416C67.0814 24.8257 67.2087 24.9379 67.3104 25.0715C67.4121 25.205 67.4861 25.3574 67.5281 25.5197C67.5701 25.6819 67.5794 25.8509 67.5553 26.0168C67.5312 26.1827 67.4742 26.3421 67.3877 26.4859C67.3012 26.6296 67.1869 26.7549 67.0513 26.8543C66.9158 26.9537 66.7618 27.0253 66.5982 27.065L66.5987 27.0648Z" fill="#BDBDBD"/>
<path d="M65.2513 42.7621L36.0294 50.2644C35.7048 50.3431 35.3621 50.2915 35.0754 50.1205C34.7888 49.9496 34.5813 49.6731 34.4979 49.351C34.4144 49.0289 34.4617 48.687 34.6296 48.3994C34.7974 48.1118 35.0723 47.9015 35.3947 47.8141L64.6166 40.312C64.779 40.268 64.9486 40.2565 65.1155 40.2783C65.2824 40.3001 65.4433 40.3546 65.5889 40.4388C65.7345 40.523 65.8618 40.6351 65.9634 40.7687C66.0651 40.9023 66.1391 41.0546 66.1812 41.2169C66.2232 41.3792 66.2324 41.5482 66.2083 41.7141C66.1842 41.8799 66.1273 42.0394 66.0408 42.1831C65.9543 42.3269 65.8399 42.4521 65.7044 42.5516C65.5689 42.651 65.4148 42.7226 65.2513 42.7623V42.7621Z" fill="#BDBDBD"/>
<path d="M71.3986 45.5943L37.1005 54.3996C36.9381 54.4436 36.7685 54.455 36.6015 54.4333C36.4346 54.4115 36.2737 54.3569 36.1282 54.2728C35.9826 54.1886 35.8553 54.0764 35.7536 53.9429C35.6519 53.8093 35.5779 53.6569 35.5359 53.4946C35.4939 53.3324 35.4846 53.1634 35.5087 52.9975C35.5328 52.8316 35.5898 52.6722 35.6763 52.5284C35.7628 52.3847 35.8771 52.2594 36.0127 52.16C36.1482 52.0606 36.3022 51.989 36.4658 51.9493L70.7639 43.144C70.9263 43.1 71.0959 43.0886 71.2628 43.1103C71.4297 43.1321 71.5906 43.1867 71.7362 43.2708C71.8818 43.355 72.0091 43.4672 72.1108 43.6007C72.2124 43.7343 72.2864 43.8867 72.3285 44.049C72.3705 44.2112 72.3797 44.3802 72.3556 44.5461C72.3315 44.712 72.2746 44.8714 72.1881 45.0152C72.1016 45.1589 71.9872 45.2842 71.8517 45.3836C71.7162 45.483 71.5621 45.5546 71.3986 45.5943Z" fill="#1A1A1A"/>
<path d="M70.0512 61.2927L40.8293 68.7949C40.6669 68.8389 40.4973 68.8504 40.3304 68.8286C40.1635 68.8068 40.0026 68.7523 39.857 68.6681C39.7114 68.5839 39.5841 68.4717 39.4825 68.3382C39.3808 68.2046 39.3068 68.0522 39.2648 67.89C39.2227 67.7277 39.2135 67.5587 39.2376 67.3928C39.2617 67.227 39.3186 67.0675 39.4052 66.9238C39.4917 66.78 39.606 66.6548 39.7415 66.5553C39.877 66.4559 40.0311 66.3843 40.1946 66.3446L69.4165 58.8433C69.5789 58.7992 69.7485 58.7878 69.9154 58.8095C70.0823 58.8313 70.2432 58.8859 70.3888 58.9701C70.5344 59.0543 70.6617 59.1664 70.7633 59.3C70.865 59.4335 70.939 59.5859 70.9811 59.7482C71.0231 59.9105 71.0323 60.0794 71.0082 60.2453C70.9841 60.4112 70.9272 60.5706 70.8407 60.7144C70.7541 60.8582 70.6398 60.9834 70.5043 61.0828C70.3688 61.1822 70.2148 61.2538 70.0512 61.2935V61.2927Z" fill="#1A1A1A"/>
<path d="M76.1985 64.1234L41.9004 72.9289C41.5757 73.0076 41.233 72.9559 40.9464 72.785C40.6597 72.614 40.4522 72.3376 40.3688 72.0155C40.2854 71.6934 40.3327 71.3515 40.5005 71.0639C40.6684 70.7762 40.9433 70.566 41.2657 70.4786L75.5638 61.6733C75.7262 61.6293 75.8958 61.6179 76.0627 61.6396C76.2296 61.6614 76.3905 61.716 76.5361 61.8001C76.6817 61.8843 76.809 61.9965 76.9106 62.13C77.0123 62.2636 77.0863 62.416 77.1283 62.5783C77.1704 62.7405 77.1796 62.9095 77.1555 63.0754C77.1314 63.2412 77.0745 63.4007 76.9879 63.5445C76.9014 63.6882 76.7871 63.8135 76.6516 63.9129C76.516 64.0123 76.362 64.0839 76.1985 64.1236V64.1234Z" fill="#1A1A1A"/>
<path d="M26.2409 39.4265L15.8991 42.0814C15.7426 42.1214 15.5766 42.098 15.4374 42.0162C15.2983 41.9345 15.1974 41.8012 15.1568 41.6455L12.7836 32.4813C12.7435 32.3255 12.767 32.1602 12.8491 32.0217C12.9312 31.8831 13.0651 31.7827 13.2215 31.7423L23.5628 29.0874C23.7193 29.0474 23.8853 29.0709 24.0245 29.1526C24.1636 29.2343 24.2646 29.3677 24.3051 29.5234L26.6789 38.6875C26.7191 38.8433 26.6956 39.0086 26.6135 39.1472C26.5314 39.2857 26.3974 39.3862 26.241 39.4265H26.2409Z" fill="#BDBDBD"/>
<path d="M31.0409 57.9586L20.6995 60.6126C20.543 60.6526 20.3769 60.6292 20.2378 60.5475C20.0986 60.4658 19.9977 60.3324 19.9572 60.1767L17.5833 51.0125C17.5432 50.8567 17.5667 50.6914 17.6488 50.5529C17.7309 50.4144 17.8648 50.3139 18.0212 50.2736L28.3625 47.6187C28.519 47.5787 28.685 47.6021 28.8242 47.6838C28.9634 47.7656 29.0643 47.8989 29.1048 48.0546L31.4786 57.2188C31.5188 57.3746 31.4953 57.5399 31.4132 57.6784C31.3311 57.817 31.1972 57.9174 31.0408 57.9578L31.0409 57.9586Z" fill="#BDBDBD"/>
<path d="M35.8408 76.4871L25.4995 79.1419C25.343 79.1819 25.177 79.1585 25.0378 79.0768C24.8987 78.9951 24.7978 78.8617 24.7572 78.706L22.3834 69.5418C22.3432 69.386 22.3668 69.2207 22.4488 69.0822C22.5309 68.9437 22.6649 68.8432 22.8213 68.8029L33.1626 66.148C33.3191 66.108 33.4851 66.1314 33.6243 66.2131C33.7634 66.2949 33.8643 66.4282 33.9049 66.5839L36.2787 75.7479C36.3189 75.9037 36.2953 76.069 36.2132 76.2076C36.1311 76.3461 35.9972 76.4467 35.8408 76.4871Z" fill="#BDBDBD"/>
<path d="M103.814 17.3633H44.138C42.1146 17.3656 40.1749 18.1668 38.7442 19.5911C37.3135 21.0154 36.5087 22.9465 36.5064 24.9608V94.7201C36.5088 96.7343 37.3136 98.6653 38.7443 100.09C40.175 101.514 42.1147 102.315 44.138 102.317H103.814C105.838 102.315 107.777 101.514 109.208 100.089C110.639 98.665 111.443 96.7339 111.446 94.7196V24.9608C111.443 22.9465 110.639 21.0154 109.208 19.5911C107.777 18.1668 105.838 17.3656 103.814 17.3633Z" fill="#262626"/>
<path d="M103.814 19.5508H44.138C42.6971 19.5523 41.3157 20.1228 40.2969 21.1371C39.278 22.1514 38.7049 23.5267 38.7034 24.9611V94.7206C38.7049 96.155 39.278 97.5303 40.2969 98.5446C41.3157 99.5589 42.6971 100.129 44.138 100.131H103.814C105.255 100.129 106.637 99.5589 107.655 98.5446C108.674 97.5303 109.247 96.155 109.249 94.7206V24.9611C109.247 23.5267 108.674 22.1514 107.655 21.1371C106.637 20.1228 105.255 19.5523 103.814 19.5508Z" fill="#0D0D0D"/>
<path d="M102.763 21H45.2402C43.8514 21.0015 42.5198 21.5537 41.5377 22.5356C40.5556 23.5174 40.0032 24.8486 40.0017 26.2371V93.7629C40.0032 95.1514 40.5556 96.4826 41.5377 97.4644C42.5198 98.4463 43.8514 98.9985 45.2402 99H102.763C104.152 98.9985 105.484 98.4463 106.466 97.4644C107.448 96.4826 108 95.1514 108.002 93.7629V26.2371C108 24.8486 107.448 23.5174 106.466 22.5356C105.484 21.5537 104.152 21.0015 102.763 21Z" fill="#262626"/>
<path d="M109.002 109C113.972 109 118.002 104.971 118.002 100C118.002 95.0294 113.972 91 109.002 91C104.031 91 100.002 95.0294 100.002 100C100.002 104.971 104.031 109 109.002 109Z" fill="#FFA36E"/>
<path d="M113.716 98.7142H110.287V95.2857C110.287 94.9447 110.152 94.6177 109.911 94.3766C109.67 94.1355 109.343 94 109.002 94C108.661 94 108.334 94.1355 108.093 94.3766C107.851 94.6177 107.716 94.9447 107.716 95.2857V98.7142H104.287C103.946 98.7142 103.619 98.8496 103.378 99.0907C103.137 99.3319 103.002 99.6589 103.002 99.9999C103.002 100.341 103.137 100.668 103.378 100.909C103.619 101.15 103.946 101.286 104.287 101.286H107.716V104.714C107.716 105.055 107.851 105.382 108.093 105.623C108.334 105.865 108.661 106 109.002 106C109.343 106 109.67 105.865 109.911 105.623C110.152 105.382 110.287 105.055 110.287 104.714V101.286H113.716C114.057 101.286 114.384 101.15 114.625 100.909C114.866 100.668 115.002 100.341 115.002 100C115.002 99.659 114.866 99.332 114.625 99.0909C114.384 98.8497 114.057 98.7143 113.716 98.7143V98.7142Z" fill="#0D0D0D"/>
<path d="M94.8331 57.8842H64.6545C64.3175 57.8842 63.9942 57.7509 63.7558 57.5136C63.5175 57.2763 63.3835 56.9544 63.3835 56.6188C63.3835 56.2833 63.5175 55.9614 63.7558 55.7241C63.9942 55.4868 64.3175 55.3535 64.6545 55.3535H94.8331C95 55.3535 95.1652 55.3862 95.3194 55.4498C95.4736 55.5134 95.6138 55.6066 95.7318 55.7241C95.8498 55.8416 95.9434 55.9811 96.0073 56.1346C96.0712 56.2881 96.1041 56.4527 96.1041 56.6188C96.1041 56.785 96.0712 56.9495 96.0073 57.1031C95.9434 57.2566 95.8498 57.3961 95.7318 57.5136C95.6138 57.6311 95.4736 57.7243 95.3194 57.7878C95.1652 57.8514 95 57.8842 94.8331 57.8842Z" fill="#BDBDBD"/>
<path d="M100.075 62.1537H64.6551C64.4882 62.1537 64.323 62.121 64.1688 62.0574C64.0146 61.9938 63.8744 61.9006 63.7564 61.7831C63.6384 61.6656 63.5448 61.5261 63.4809 61.3726C63.417 61.2191 63.3842 61.0545 63.3842 60.8884C63.3842 60.7222 63.417 60.5577 63.4809 60.4042C63.5448 60.2506 63.6384 60.1111 63.7564 59.9937C63.8744 59.8762 64.0146 59.783 64.1688 59.7194C64.323 59.6558 64.4882 59.623 64.6551 59.623H100.075C100.242 59.623 100.407 59.6558 100.562 59.7194C100.716 59.783 100.856 59.8762 100.974 59.9937C101.092 60.1111 101.186 60.2506 101.249 60.4042C101.313 60.5577 101.346 60.7222 101.346 60.8884C101.346 61.0545 101.313 61.2191 101.249 61.3726C101.186 61.5261 101.092 61.6656 100.974 61.7831C100.856 61.9006 100.716 61.9938 100.562 62.0574C100.407 62.121 100.242 62.1537 100.075 62.1537Z" fill="#BDBDBD"/>
<path d="M94.8331 77.0189H64.6545C64.3175 77.0189 63.9942 76.8856 63.7558 76.6483C63.5175 76.411 63.3835 76.0892 63.3835 75.7536C63.3835 75.418 63.5175 75.0962 63.7558 74.8589C63.9942 74.6216 64.3175 74.4883 64.6545 74.4883H94.8331C95.1701 74.4883 95.4934 74.6216 95.7318 74.8589C95.9701 75.0962 96.1041 75.418 96.1041 75.7536C96.1041 76.0892 95.9701 76.411 95.7318 76.6483C95.4934 76.8856 95.1701 77.0189 94.8331 77.0189Z" fill="#BDBDBD"/>
<path d="M100.075 81.2904H64.6551C64.3181 81.2904 63.9948 81.1571 63.7564 80.9198C63.5181 80.6825 63.3842 80.3607 63.3842 80.0251C63.3842 79.6895 63.5181 79.3677 63.7564 79.1304C63.9948 78.8931 64.3181 78.7598 64.6551 78.7598H100.075C100.412 78.7598 100.736 78.8931 100.974 79.1304C101.212 79.3677 101.346 79.6895 101.346 80.0251C101.346 80.3607 101.212 80.6825 100.974 80.9198C100.736 81.1571 100.412 81.2904 100.075 81.2904Z" fill="#BDBDBD"/>
<path d="M57.8952 64.0908H47.2157C47.0541 64.0906 46.8993 64.0266 46.785 63.9129C46.6708 63.7992 46.6066 63.645 46.6064 63.4842V54.0206C46.6066 53.8598 46.6708 53.7056 46.7851 53.5919C46.8994 53.4782 47.0543 53.4142 47.2158 53.4141H57.8953C58.0569 53.4143 58.2118 53.4783 58.326 53.592C58.4402 53.7058 58.5045 53.86 58.5046 54.0208V63.4848C58.5043 63.6455 58.4399 63.7996 58.3257 63.9132C58.2114 64.0267 58.0566 64.0906 57.8952 64.0908Z" fill="#BDBDBD"/>
<path d="M57.8952 83.228H47.2157C47.0541 83.2278 46.8992 83.1638 46.785 83.05C46.6708 82.9363 46.6065 82.7821 46.6064 82.6212V73.1574C46.6066 72.9965 46.6708 72.8423 46.7851 72.7286C46.8994 72.6149 47.0543 72.5509 47.2158 72.5508H57.8953C58.0569 72.551 58.2118 72.615 58.326 72.7287C58.4402 72.8425 58.5045 72.9967 58.5046 73.1575V82.6215C58.5044 82.7823 58.4401 82.9365 58.3258 83.0502C58.2116 83.1639 58.0567 83.2278 57.8952 83.228Z" fill="#BDBDBD"/>
<path d="M94.8665 36.5814H72.6183C72.2812 36.5814 71.9579 36.4481 71.7195 36.2108C71.4812 35.9735 71.3473 35.6517 71.3473 35.3161C71.3473 34.9805 71.4812 34.6587 71.7195 34.4214C71.9579 34.1841 72.2812 34.0508 72.6183 34.0508H94.8665C95.2036 34.0508 95.5269 34.1841 95.7653 34.4214C96.0036 34.6587 96.1375 34.9805 96.1375 35.3161C96.1375 35.6517 96.0036 35.9735 95.7653 36.2108C95.5269 36.4481 95.2036 36.5814 94.8665 36.5814Z" fill="#FFA36E"/>
<path d="M100.109 40.851H72.6183C72.2812 40.851 71.9579 40.7177 71.7195 40.4804C71.4812 40.2431 71.3473 39.9212 71.3473 39.5856C71.3473 39.2501 71.4812 38.9282 71.7195 38.6909C71.9579 38.4536 72.2812 38.3203 72.6183 38.3203H100.109C100.446 38.3203 100.769 38.4536 101.008 38.6909C101.246 38.9282 101.38 39.2501 101.38 39.5856C101.38 39.9212 101.246 40.2431 101.008 40.4804C100.769 40.7177 100.446 40.851 100.109 40.851Z" fill="#FFA36E"/>
<path d="M67.6936 46.0269H47.1817C47.0201 46.0267 46.8652 45.9627 46.751 45.8489C46.6368 45.7352 46.5726 45.581 46.5724 45.4201V29.4835C46.5726 29.3227 46.6369 29.1685 46.7511 29.0548C46.8654 28.9411 47.0203 28.8771 47.1818 28.877H67.6936C67.8552 28.8771 68.0101 28.9411 68.1243 29.0548C68.2386 29.1685 68.3029 29.3227 68.3031 29.4835V45.4201C68.3029 45.581 68.2386 45.7352 68.1244 45.849C68.0101 45.9627 67.8552 46.0267 67.6936 46.0269Z" fill="#FFA36E"/>
</svg>
