<svg width="105" height="97" viewBox="0 0 105 97" fill="none" xmlns="http://www.w3.org/2000/svg">
<rect width="96.378" height="28.2848" rx="4.19035" fill="#262626"/>
<rect x="1.57142" y="1.56996" width="93.2352" height="25.1421" rx="2.61897" fill="#262626"/>
<rect x="1.57142" y="1.56996" width="93.2352" height="25.1421" rx="2.61897" stroke="black" stroke-width="1.04759"/>
<rect x="6.2854" y="6.28516" width="73.3311" height="4.19035" rx="2.09517" fill="#FF9254"/>
<rect x="6.2854" y="13.6211" width="45.0462" height="4.19035" rx="2.09517" fill="#FF9254"/>
<rect y="30.3789" width="96.378" height="28.2848" rx="4.19035" fill="#262626"/>
<rect x="1.57142" y="31.9489" width="93.2352" height="25.1421" rx="2.61897" fill="#262626"/>
<rect x="1.57142" y="31.9489" width="93.2352" height="25.1421" rx="2.61897" stroke="black" stroke-width="1.04759"/>
<rect x="6.2854" y="36.6641" width="73.3311" height="4.19035" rx="2.09517" fill="#FF9254"/>
<rect x="6.2854" y="44" width="45.0462" height="4.19035" rx="2.09517" fill="#FF9254"/>
<rect y="60.7617" width="96.378" height="28.2848" rx="4.19035" fill="#262626"/>
<rect x="1.57142" y="62.3317" width="93.2352" height="25.1421" rx="2.61897" fill="#262626"/>
<rect x="1.57142" y="62.3317" width="93.2352" height="25.1421" rx="2.61897" stroke="black" stroke-width="1.04759"/>
<rect x="6.2854" y="67.0469" width="73.3311" height="4.19035" rx="2.09517" fill="#FF9254"/>
<rect x="6.2854" y="74.3828" width="45.0462" height="4.19035" rx="2.09517" fill="#FF9254"/>
<path d="M94.2828 95.9542C99.4899 95.9542 103.711 91.733 103.711 86.5259C103.711 81.3188 99.4899 77.0977 94.2828 77.0977C89.0757 77.0977 84.8545 81.3188 84.8545 86.5259C84.8545 91.733 89.0757 95.9542 94.2828 95.9542Z" fill="#FF9254"/>
<g clip-path="url(#clip0_1202_7377)">
<path d="M92.2601 88.045L92.0196 87.8578L90.5956 89.6872C90.4516 89.8722 90.1849 89.9054 90 89.7615C89.9068 89.6889 89.8481 89.5809 89.8379 89.4634L89.3748 84.1511C89.3577 83.956 89.4152 83.7617 89.5355 83.6071C89.6558 83.4525 89.8301 83.3491 90.0235 83.3177L95.2869 82.463C95.4034 82.444 95.5225 82.4745 95.6157 82.547C95.8006 82.691 95.8338 82.9577 95.6899 83.1426L94.2659 84.972C96.9374 87.0515 99.8832 86.2425 100.684 85.9631C100.816 85.917 100.963 85.9368 101.073 86.0228C101.24 86.1525 101.27 86.3928 101.14 86.5595L100.814 86.9791C98.7459 89.6354 94.9164 90.1126 92.2601 88.045Z" fill="black" stroke="black" stroke-width="0.914245" stroke-linejoin="round"/>
</g>
<defs>
<clipPath id="clip0_1202_7377">
<rect width="14.6279" height="14.6279" fill="white" transform="translate(95.3303 97) rotate(-142.103)"/>
</clipPath>
</defs>
</svg>
